<svg width="35" height="35" viewBox="0 0 35 35" fill="none" xmlns="http://www.w3.org/2000/svg">
<path fill-rule="evenodd" clip-rule="evenodd" d="M0 1.0875C0 0.48689 0.48689 0 1.0875 0H33.7125C34.3131 0 34.8 0.48689 34.8 1.0875V33.7125C34.8 34.3131 34.3131 34.8 33.7125 34.8H1.0875C0.48689 34.8 0 34.3131 0 33.7125V1.0875ZM2.71875 2.71875V32.0812H32.0812V2.71875H2.71875Z" fill="white"/>
<path fill-rule="evenodd" clip-rule="evenodd" d="M18.2156 5.98125C18.5159 5.98125 18.7594 6.2247 18.7594 6.525V28.275C18.7594 28.5753 18.5159 28.8187 18.2156 28.8187H16.5844C16.2841 28.8187 16.0406 28.5753 16.0406 28.275V6.525C16.0406 6.2247 16.2841 5.98125 16.5844 5.98125H18.2156ZM9.7875 13.5938C10.0878 13.5938 10.3313 13.8372 10.3313 14.1375V28.275C10.3313 28.5753 10.0878 28.8187 9.7875 28.8187H8.15625C7.85595 28.8187 7.6125 28.5753 7.6125 28.275V14.1375C7.6125 13.8372 7.85595 13.5938 8.15625 13.5938H9.7875ZM26.6437 19.0312C26.9441 19.0312 27.1875 19.2747 27.1875 19.575V28.275C27.1875 28.5753 26.9441 28.8187 26.6437 28.8187H25.0125C24.7122 28.8187 24.4688 28.5753 24.4688 28.275V19.575C24.4688 19.2747 24.7122 19.0312 25.0125 19.0312H26.6437Z" fill="white"/>
</svg>
